<svg width="290" height="455" viewBox="0 0 290 455" fill="none" xmlns="http://www.w3.org/2000/svg">
<path d="M126.14 454.513V0H168.017V454.513H126.14ZM151.675 414.169C121.033 414.169 94.6477 409.062 72.5178 398.848C50.7284 388.294 33.5352 373.654 20.9382 354.929C8.68171 336.204 1.7023 314.414 0 289.561L76.6033 285.475C78.6461 299.434 82.7316 311.35 88.8599 321.223C94.9881 331.097 103.159 338.587 113.373 343.694C123.927 348.46 137.035 350.843 152.696 350.843C165.293 350.843 176.017 349.481 184.869 346.758C193.721 343.694 200.36 339.097 204.786 332.969C209.553 326.841 211.936 319.181 211.936 309.988C211.936 301.817 209.893 294.667 205.808 288.539C202.063 282.07 194.402 276.283 182.827 271.176C171.591 265.728 154.909 260.622 132.779 255.855C102.478 249.046 78.1354 241.386 59.7506 232.874C41.3658 224.022 27.9177 212.957 19.4062 199.679C11.2352 186.401 7.14964 169.719 7.14964 149.632C7.14964 128.523 12.4268 109.968 22.981 93.9667C33.5352 77.9651 48.6857 65.5384 68.4323 56.6865C88.5194 47.4941 112.352 42.8979 139.929 42.8979C169.208 42.8979 194.062 48.0047 214.489 58.2185C234.917 68.4323 250.748 82.5614 261.983 100.606C273.559 118.65 280.709 139.588 283.432 163.42L207.34 166.485C205.978 154.568 202.403 144.014 196.615 134.822C191.168 125.629 183.508 118.48 173.634 113.373C164.101 108.266 152.526 105.713 138.907 105.713C121.884 105.713 108.436 109.628 98.563 117.458C88.6896 124.949 83.753 134.822 83.753 147.078C83.753 155.93 85.7957 163.42 89.8812 169.549C94.3072 175.337 101.797 180.443 112.352 184.869C123.246 188.955 138.226 193.04 157.292 197.126C190.317 203.595 216.362 211.936 235.428 222.15C254.834 232.363 268.622 244.45 276.793 258.409C284.964 272.367 289.05 288.369 289.05 306.413C289.05 328.543 283.432 347.779 272.197 364.121C260.962 380.123 244.96 392.55 224.192 401.401C203.765 409.913 179.592 414.169 151.675 414.169Z" fill="#22C55E"/>
</svg>
